<svg xmlns="http://www.w3.org/2000/svg" xmlns:svg="http://www.w3.org/2000/svg" xmlns:xlink="http://www.w3.org/1999/xlink" id="svg2576" width="935.234" height="244.45" x="0" y="0" version="1.1" viewBox="0 0 935.234 244.45" xml:space="preserve"><metadata id="metadata2582"/><defs id="defs2580"><linearGradient id="SVGID_1_" x1="157.189" x2="157.189" y1=".027" y2="186.819" gradientTransform="matrix(1.2232081,0,0,1.2232081,479.25531,96.158459)" gradientUnits="userSpaceOnUse"><stop offset=".129" style="stop-color:#e6e6e6" id="stop2191"/><stop offset=".354" style="stop-color:#fbfbfb" id="stop2193"/><stop offset=".64" style="stop-color:#e9e9e9" id="stop2195"/><stop offset=".957" style="stop-color:#cfcfce" id="stop2197"/><stop offset="1" style="stop-color:#cdcbcb" id="stop2199"/></linearGradient></defs><style id="style2186" type="text/css">.st0{fill:#365240}.st1{fill:url(#SVGID_1_)}.st2{fill:none;stroke:#bdbdbc;stroke-width:.8763;stroke-miterlimit:10}.st3{clip-path:url(#SVGID_2_)}.st4{fill:url(#SVGID_3_)}.st5{fill:#f5a608}.st6{fill:#010202}.st9{opacity:.5}.st10{fill:#7e7e7e}.st11{fill:#d6373f}</style><text xml:space="preserve" style="font-style:normal;font-weight:400;font-size:40px;line-height:1.25;font-family:sans-serif;letter-spacing:0;word-spacing:0;fill:#000;fill-opacity:1;stroke:none;stroke-width:.99999994" id="text955" x="0" y="34.159"><tspan id="tspan953" x="0" y="34.159" style="font-style:normal;font-variant:normal;font-weight:400;font-stretch:normal;font-size:40px;font-family:monospace;-inkscape-font-specification:'monospace, Normal';font-variant-ligatures:normal;font-variant-caps:normal;font-variant-numeric:normal;font-feature-settings:normal;text-align:start;writing-mode:lr-tb;text-anchor:start;stroke-width:.99999994">{</tspan><tspan x="0" y="84.159" style="font-style:normal;font-variant:normal;font-weight:400;font-stretch:normal;font-size:40px;font-family:monospace;-inkscape-font-specification:'monospace, Normal';font-variant-ligatures:normal;font-variant-caps:normal;font-variant-numeric:normal;font-feature-settings:normal;text-align:start;writing-mode:lr-tb;text-anchor:start;stroke-width:.99999994" id="tspan957"> &quot;numero&quot;: 24,</tspan><tspan x="0" y="134.159" style="font-style:normal;font-variant:normal;font-weight:400;font-stretch:normal;font-size:40px;font-family:monospace;-inkscape-font-specification:'monospace, Normal';font-variant-ligatures:normal;font-variant-caps:normal;font-variant-numeric:normal;font-feature-settings:normal;text-align:start;writing-mode:lr-tb;text-anchor:start;stroke-width:.99999994" id="tspan959"> &quot;class&quot;: 2,</tspan><tspan x="0" y="184.159" style="font-style:normal;font-variant:normal;font-weight:400;font-stretch:normal;font-size:40px;font-family:monospace;-inkscape-font-specification:'monospace, Normal';font-variant-ligatures:normal;font-variant-caps:normal;font-variant-numeric:normal;font-feature-settings:normal;text-align:start;writing-mode:lr-tb;text-anchor:start;stroke-width:.99999994" id="tspan961"> &quot;start&quot;: &quot;2020010120&quot;</tspan><tspan x="0" y="234.159" style="font-style:normal;font-variant:normal;font-weight:400;font-stretch:normal;font-size:40px;font-family:monospace;-inkscape-font-specification:'monospace, Normal';font-variant-ligatures:normal;font-variant-caps:normal;font-variant-numeric:normal;font-feature-settings:normal;text-align:start;writing-mode:lr-tb;text-anchor:start;stroke-width:.99999994" id="tspan963">}</tspan></text><g id="g3514" transform="rotate(24.909236,910.39998,323.19735)"><path style="fill:#365240;stroke-width:1.22320807" id="path2189" d="m 725.60942,124.65921 c 4.15891,-0.73393 6.84997,-4.77051 5.99372,-8.8071 0,0 0,0 0,-0.12232 0,-0.12232 0,-0.24464 0,-0.24464 l 99.3245,-19.326691 c 0.97857,-0.122321 1.83481,0.366962 1.95713,1.345529 l 2.81338,14.433852 h -0.12232 c -4.15891,0.73393 -6.84997,4.77052 -6.11604,8.92942 0.73392,4.15891 4.77051,6.84997 8.92942,6.11604 v 0 h 0.12232 l 1.46785,7.58389 c 0,0.24464 -0.12232,0.48929 -0.36696,0.61161 v 0 c -4.15891,0.85624 -6.84997,4.77051 -5.99372,8.92942 0.85624,4.1589 4.77051,6.84996 8.92942,5.99372 v 0 c 0.24464,0 0.48928,0.12232 0.6116,0.36696 0,0 0,0 0,0 l 1.34553,7.09461 c 0,0.24464 -0.12232,0.48928 -0.36696,0.6116 0,0 0,0 0,0 h -0.36697 c -4.1589,0.85625 -6.84996,4.77051 -5.99372,8.92942 0.85625,4.15891 4.77052,6.84996 8.92942,5.99372 l 0.36697,-0.12232 c 0.24464,0 0.48928,0.12232 0.6116,0.36696 0,0 0,0 0,0 l 1.34553,7.09461 c 0,0.24464 -0.12232,0.48928 -0.36696,0.6116 0,0 0,0 0,0 v 0 c -4.15891,0.85625 -6.84997,4.77051 -5.99372,8.92942 0.85624,4.15891 4.77051,6.84997 8.92942,5.99372 v 0 0 c 0.24464,0 0.48928,0.12232 0.6116,0.36696 l 1.46785,7.58389 h -0.12232 c -4.15891,0.85625 -6.84997,4.77051 -5.99372,8.92942 0.85624,4.15891 4.77051,6.84997 8.92942,5.99372 h 0.12232 l 1.46785,7.58389 c 0,0.24464 -0.12232,0.48928 -0.36696,0.61161 v 0 c -4.15891,0.85624 -6.84997,4.77051 -5.99372,8.92941 0.85624,4.15891 4.77051,6.84997 8.92942,5.99372 v 0 c 0.24464,0 0.48928,0.12233 0.6116,0.36697 0,0 0,0 0,0 l 2.69106,13.94457 c 0.12232,0.85624 -0.36696,1.83481 -1.34553,1.95713 0,0 0,0 0,0 l -98.34593,19.08205 c -0.61161,0.12232 -1.10089,-0.24464 -1.22321,-0.85625 v 0 c -0.73393,-4.1589 -4.77051,-6.84996 -8.8071,-5.99372 0,0 0,0 -0.12232,0 z" class="st0"/><path style="fill:url(#SVGID_1_);stroke-width:1.22320807" id="path2202" d="m 860.40695,242.33183 c -4.1589,0.85624 -8.19549,-1.95714 -8.92942,-5.99372 -0.85624,-4.15891 1.95714,-8.1955 5.99372,-8.92942 v 0 c 0.24465,0 0.48929,-0.36696 0.36697,-0.61161 l -1.46785,-7.58389 h -0.12232 c -4.15891,0.85625 -8.1955,-1.95713 -8.92942,-5.99372 -0.85625,-4.1589 1.95713,-8.19549 5.99372,-8.92941 h 0.12232 l -1.46785,-7.5839 c 0,-0.24464 -0.36696,-0.48928 -0.61161,-0.36696 v 0 c -4.1589,0.85625 -8.19549,-1.95713 -8.92942,-5.99372 -0.85624,-4.1589 1.95714,-8.19549 5.99372,-8.92942 v 0 c 0.24465,0 0.48929,-0.36696 0.36697,-0.6116 0,0 0,0 0,0 l -1.34553,-7.09461 c 0,-0.24464 -0.24464,-0.48928 -0.61161,-0.36696 0,0 0,0 0,0 l -0.36696,0.12232 c -4.15891,0.73393 -8.19549,-1.95713 -8.92942,-6.11604 -0.73392,-4.15891 1.95714,-8.19549 6.11604,-8.92942 h 0.36697 c 0.24464,0 0.48928,-0.24464 0.36696,-0.6116 0,0 0,0 0,0 l -1.34553,-7.09461 c 0,-0.24464 -0.36696,-0.48928 -0.61161,-0.36696 0,0 0,0 0,0 v 0 c -4.1589,0.85624 -8.19549,-1.95714 -8.92941,-5.99372 -0.85625,-4.15891 1.95713,-8.1955 5.99372,-8.92942 v 0 c 0.24464,0 0.48928,-0.36696 0.36696,-0.61161 l -1.46785,-7.58389 h -0.12232 c -4.15891,0.85625 -8.1955,-1.95713 -8.92942,-5.99371 -0.73393,-4.03659 1.95713,-8.1955 5.99372,-8.92942 v 0 h 0.12232 l -2.81338,-14.43386 c -0.12232,-0.978566 -1.10089,-1.467849 -1.95713,-1.345529 l -99.44682,19.204369 c 0,0.12232 0,0.24464 0,0.24464 0.85624,4.15891 -1.95713,8.19549 -5.99372,8.92942 -4.15891,0.85625 -8.1955,-1.95713 -8.92942,-5.99372 v 0 c 0,-0.12232 0,-0.24464 0,-0.24464 l -224.70333,43.17924 c -8.31781,1.59017 -13.69993,9.54103 -12.10976,17.85884 0,0 0,0 0,0 l 9.17406,47.70512 c 10.88655,-1.59017 20.42758,4.03658 22.62935,14.92314 2.20178,10.88655 -4.89283,18.8374 -15.53474,21.28382 l 9.4187,48.68368 c 1.59017,8.31782 9.66335,13.69993 17.85884,12.10976 l 223.9694,-43.42389 c 0.61161,-0.12232 0.97857,-0.6116 0.85625,-1.22321 v 0 c -0.85625,-4.1589 1.95713,-8.19549 5.99372,-8.92941 4.15891,-0.85625 8.19549,1.95713 8.92942,5.99372 v 0 0 c 0.12232,0.6116 0.6116,0.97856 1.22321,0.85624 l 98.34593,-19.08205 c 0.97856,-0.12232 1.46785,-1.10088 1.34553,-1.95713 0,0 0,0 0,0 l -2.69106,-13.94457 c 0,-0.24464 -0.24464,-0.36696 -0.61161,-0.36696 0.12232,0 0.12232,0 0,0 z" class="st1"/><path style="fill:none;stroke:#bdbdbc;stroke-width:1.07189727;stroke-miterlimit:10" id="path2204" d="m 738.57543,272.30043 -217.4864,42.07835 c -2.81338,0.48929 -5.38212,-1.2232 -5.99372,-4.03658 l -7.70621,-40.24355 c 4.1589,-2.20177 7.58389,-5.50444 10.27494,-9.4187 3.91427,-5.99372 5.2598,-13.33297 3.79195,-20.30526 -1.22321,-7.0946 -5.13747,-13.33296 -10.88655,-17.61419 -3.91427,-2.9357 -8.44014,-4.77051 -13.33297,-5.38212 l -7.58389,-39.50962 c -0.48928,-2.81338 1.22321,-5.38212 4.03659,-5.99372 0,0 0,0 0,0 L 710.8086,129.919 l 6.72765,5.62676 24.95344,129.17078 z" class="st2"/><g id="g2243" transform="matrix(1.2232081,0,0,1.2232081,479.25531,96.158459)"><defs id="defs2207"><path id="SVGID_22_" d="m 201.4,23.3 c 3.4,-0.6 5.6,-3.9 4.9,-7.2 0,0 0,0 0,-0.1 0,-0.1 0,-0.2 0,-0.2 L 287.5,0 c 0.8,-0.1 1.5,0.3 1.6,1.1 l 2.3,11.8 h -0.1 c -3.4,0.6 -5.6,3.9 -5,7.3 0.6,3.4 3.9,5.6 7.3,5 v 0 h 0.1 l 1.2,6.2 c 0,0.2 -0.1,0.4 -0.3,0.5 v 0 c -3.4,0.7 -5.6,3.9 -4.9,7.3 0.7,3.4 3.9,5.6 7.3,4.9 v 0 c 0.2,0 0.4,0.1 0.5,0.3 0,0 0,0 0,0 l 1.1,5.8 c 0,0.2 -0.1,0.4 -0.3,0.5 0,0 0,0 0,0 H 298 c -3.4,0.7 -5.6,3.9 -4.9,7.3 0.7,3.4 3.9,5.6 7.3,4.9 l 0.3,-0.1 c 0.2,0 0.4,0.1 0.5,0.3 0,0 0,0 0,0 l 1.1,5.8 c 0,0.2 -0.1,0.4 -0.3,0.5 0,0 0,0 0,0 v 0 c -3.4,0.7 -5.6,3.9 -4.9,7.3 0.7,3.4 3.9,5.6 7.3,4.9 v 0 0 c 0.2,0 0.4,0.1 0.5,0.3 l 1.2,6.2 H 306 c -3.4,0.7 -5.6,3.9 -4.9,7.3 0.7,3.4 3.9,5.6 7.3,4.9 h 0.1 l 1.2,6.2 c 0,0.2 -0.1,0.4 -0.3,0.5 v 0 c -3.4,0.7 -5.6,3.9 -4.9,7.3 0.7,3.4 3.9,5.6 7.3,4.9 v 0 c 0.2,0 0.4,0.1 0.5,0.3 0,0 0,0 0,0 l 2.2,11.4 c 0.1,0.7 -0.3,1.5 -1.1,1.6 0,0 0,0 0,0 L 233,148.1 c -0.5,0.1 -0.9,-0.2 -1,-0.7 v 0 c -0.6,-3.4 -3.9,-5.6 -7.2,-4.9 0,0 0,0 -0.1,0 z"/></defs><clipPath id="SVGID_2_"><use id="use2209" width="100%" height="100%" x="0" y="0" style="overflow:visible" xlink:href="#SVGID_22_"/></clipPath><g id="g2241" class="st3" clip-path="url(#SVGID_2_)"><linearGradient id="SVGID_3_" x1="267.535" x2="267.535" y1="-29.701" y2="178.196" gradientUnits="userSpaceOnUse"><stop id="stop2212" style="stop-color:#fddd43" offset="0"/><stop id="stop2214" style="stop-color:#fcdb40" offset=".226"/><stop id="stop2216" style="stop-color:#fcd32e" offset=".502"/><stop id="stop2218" style="stop-color:#f5c616" offset=".804"/><stop id="stop2220" style="stop-color:#f1bb0b" offset="1"/></linearGradient><path style="fill:url(#SVGID_3_)" id="path2223" d="m 288.9,-25 c -0.9,3 -4,4.6 -7,3.7 -0.9,-0.3 -1.7,-0.7 -2.3,-1.4 l -67,17.2 c 0.5,0.6 0.8,1.4 1,2.1 0.9,3.4 -1.2,6.9 -4.6,7.8 -3.4,0.9 -6.9,-1.2 -7.8,-4.6 C 201,-1 201,-1.8 201,-2.5 l -18.2,4.7 38.9,151.7 c 1.7,0 3.1,1.3 3.1,3 0,1.2 -0.6,2.3 -1.7,2.8 l 4.8,18.6 11.6,-3 c 0,-0.1 -0.1,-0.3 -0.1,-0.4 -0.6,-2.7 1,-5.5 3.8,-6.1 2.7,-0.6 5.4,1 6.1,3.6 0,0.1 0.1,0.3 0.1,0.4 l 103,-26.4 -5.3,-20.6 c -0.7,0.6 -1.6,1 -2.5,1.2 -3.4,0.9 -6.9,-1.2 -7.8,-4.6 -0.9,-3.4 1.2,-6.9 4.6,-7.8 0.9,-0.2 1.9,-0.3 2.8,-0.1 l -37,-144.2 z" class="st4"/><path style="fill:#f5a608" id="path2225" d="m 347.1,134.9 c 0.9,3.4 4.4,5.5 7.8,4.6 0,0 0,0 0,0 0.9,-0.2 1.8,-0.7 2.5,-1.2 L 354.5,127 c -3.5,-0.7 -6.8,1.6 -7.5,5.1 -0.2,0.9 -0.1,1.8 0.1,2.8 z" class="st5"/><path style="fill:#f5a608" id="path2227" d="m 253.4,181.1 c -2.7,0.7 -4.4,3.5 -3.7,6.2 0,0 0,0 0,0 0,0.1 0.1,0.3 0.1,0.4 l 9.9,-2.5 c 0,-0.1 -0.1,-0.3 -0.1,-0.4 -0.7,-2.8 -3.5,-4.4 -6.2,-3.7 z" class="st5"/><path style="fill:#f5a608" id="path2229" d="m 235,168.6 c -0.4,-1.4 -1.6,-2.3 -3,-2.3 l 1.5,5.8 c 1.2,-0.6 1.9,-2.1 1.5,-3.5 z" class="st5"/><path style="fill:#f5a608" id="path2231" d="m 295.3,-8.7 c 1.9,-0.5 3.4,-1.9 4,-3.8 l -9.3,2.4 c 1.3,1.3 3.4,1.9 5.3,1.4 z" class="st5"/><path style="fill:#f5a608" id="path2233" d="m 313.3,101.7 c -0.9,-3.4 1.2,-6.9 4.6,-7.8 3.4,-0.9 6.9,1.2 7.8,4.6 0.9,3.4 -1.2,6.9 -4.6,7.8 0,0 0,0 0,0 -3.4,0.9 -6.9,-1.2 -7.8,-4.6" class="st5"/><path style="fill:#f5a608" id="path2235" d="m 307.8,18.1 c -0.4,-1.6 0.6,-3.3 2.2,-3.7 1.6,-0.4 3.3,0.6 3.7,2.2 0.4,1.6 -0.6,3.3 -2.2,3.7 -1.6,0.4 -3.2,-0.6 -3.7,-2.2" class="st5"/><path style="fill:#f5a608" id="path2237" d="m 301.2,153.1 c -0.2,-0.9 0.3,-1.8 1.2,-2 0.9,-0.2 1.8,0.3 2,1.2 0.2,0.9 -0.3,1.8 -1.2,2 0,0 0,0 0,0 -0.9,0.2 -1.8,-0.3 -2,-1.2" class="st5"/><path style="fill:#f5a608" id="path2239" d="m 322,66.4 c -0.2,-0.9 0.3,-1.8 1.2,-2 0.9,-0.2 1.8,0.3 2,1.2 0.2,0.9 -0.3,1.8 -1.2,2 0,0 0,0 0,0 -0.9,0.3 -1.8,-0.2 -2,-1.2 0,0.1 0,0 0,0" class="st5"/></g></g><rect id="rect2245" width="55.657" height="5.382" x="716.873" y="279.468" class="st6" transform="rotate(-10.952611)" style="fill:#010202;stroke-width:1.22322714"/><rect id="rect2247" width="55.657" height="5.382" x="716.898" y="287.691" class="st6" transform="rotate(-10.952611)" style="fill:#010202;stroke-width:1.22322714"/><rect id="rect2249" width="55.657" height="5.382" x="716.882" y="320.706" class="st6" transform="rotate(-10.952611)" style="fill:#010202;stroke-width:1.22322714"/><rect id="rect2251" width="55.657" height="5.382" x="716.891" y="361.821" class="st6" transform="rotate(-10.952611)" style="fill:#010202;stroke-width:1.22322714"/><rect id="rect2253" width="55.657" height="2.691" x="716.804" y="297.259" class="st6" transform="rotate(-10.952611)" style="fill:#010202;stroke-width:1.22322714"/><rect id="rect2255" width="55.657" height="2.691" x="716.83" y="305.606" class="st6" transform="rotate(-10.952611)" style="fill:#010202;stroke-width:1.22322714"/><rect id="rect2257" width="55.657" height="2.691" x="716.855" y="313.829" class="st6" transform="rotate(-10.952611)" style="fill:#010202;stroke-width:1.22322714"/><rect id="rect2259" width="55.657" height="2.691" x="716.908" y="330.274" class="st6" transform="rotate(-10.952611)" style="fill:#010202;stroke-width:1.22322714"/><rect id="rect2261" width="55.657" height="2.691" x="716.813" y="338.496" class="st6" transform="rotate(-10.952611)" style="fill:#010202;stroke-width:1.22322714"/><rect id="rect2263" width="55.657" height="2.691" x="716.839" y="346.721" class="st6" transform="rotate(-10.952611)" style="fill:#010202;stroke-width:1.22322714"/><rect id="rect2265" width="55.657" height="2.691" x="716.867" y="354.943" class="st6" transform="rotate(-10.952611)" style="fill:#010202;stroke-width:1.22322714"/><g transform="matrix(1.2232081,0,0,1.2232081,479.25531,90.158459)" style="opacity:.5" id="g2299" class="st9"><path style="fill:#7e7e7e" id="path2287" d="m 56.4,77.4 -6.2,1.2 -1,-5.2 18.7,-3.6 1,5.2 -6.2,1.2 3.5,18.4 -6.2,1.2 z" class="st10"/><path style="fill:#7e7e7e" id="path2289" d="m 71.4,69.1 6.2,-1.2 4.5,23.6 -6.2,1.2 z" class="st10"/><path style="fill:#7e7e7e" id="path2291" d="m 93.3,64.4 c 3,-0.6 5.8,0.4 7.8,1.7 l -2.7,4.5 c -1.4,-0.8 -2.5,-1.2 -4,-0.9 -2.8,0.5 -4.7,3.6 -3.9,7.8 0.9,4.4 3.4,6.5 6.4,5.9 1.8,-0.3 3,-1.4 3.8,-2.7 l 4.1,3.1 c -1.5,2.7 -4.1,4.4 -7,5 C 91.6,90 85.6,87 84.1,78.9 82.6,71.1 87.2,65.6 93.3,64.4 Z" class="st10"/><path style="fill:#7e7e7e" id="path2293" d="m 104.1,62.8 6.2,-1.2 1.7,8.8 h 0.1 l 4.3,-9.9 6.8,-1.3 -5.2,11 11.1,12.4 -6.8,1.3 -7,-8.1 -1.6,3.6 1.1,5.9 -6.2,1.2 z" class="st10"/><path style="fill:#7e7e7e" id="path2295" d="m 127,58.4 15.3,-2.9 1,5.2 -9,1.7 0.7,3.7 7.7,-1.5 1,5.2 -7.7,1.5 0.8,4.2 9.4,-1.8 1,5.2 -15.6,3 z" class="st10"/><path style="fill:#7e7e7e" id="path2297" d="m 152.7,58.8 -6.2,1.2 -1,-5.2 18.7,-3.6 1,5.2 -6.2,1.2 3.5,18.4 -6.2,1.2 z" class="st10"/></g><g id="g2307" transform="matrix(1.2232081,0,0,1.2232081,479.25531,90.158459)"><path style="fill:#d6373f" id="path2301" d="m 58.3,106.2 4,-0.8 2.7,6 c 0.7,1.4 1.2,2.9 1.9,4.3 H 67 c 0.1,-1.6 0.1,-3.1 0.2,-4.7 l 0.2,-6.5 3.9,-0.7 -1.5,15.1 -4.6,0.9 z" class="st11"/><path style="fill:#d6373f" id="path2303" d="m 72.7,103.4 3.8,-0.7 2.8,14.3 -3.8,0.7 z" class="st11"/><path style="fill:#d6373f" id="path2305" d="m 79.7,102 5.5,-1.1 c 3.1,-0.6 5.9,0 6.6,3.6 0.7,3.5 -1.8,5.5 -4.8,6.1 l -1.8,0.3 0.9,4.5 -3.8,0.7 z m 6.6,5.8 c 1.5,-0.3 2.1,-1.2 1.8,-2.4 -0.2,-1.3 -1.1,-1.6 -2.5,-1.3 l -1.6,0.3 0.7,3.8 z" class="st11"/></g><text id="text3348" x="697.642" y="417.894" transform="rotate(-12.108079)" style="font-style:normal;font-weight:400;font-size:40px;line-height:1.25;font-family:sans-serif;letter-spacing:0;word-spacing:0;fill:#000;fill-opacity:1;stroke:none" xml:space="preserve"><tspan style="font-style:normal;font-variant:normal;font-weight:400;font-stretch:normal;font-size:32px;font-family:sans-serif;-inkscape-font-specification:'sans-serif, Normal';font-variant-ligatures:normal;font-variant-caps:normal;font-variant-numeric:normal;font-feature-settings:normal;text-align:start;writing-mode:lr-tb;text-anchor:start" id="tspan3346" x="697.642" y="417.894">№ 24</tspan></text><text id="text3428" x="514.294" y="349.985" transform="rotate(-8.9737533)" style="font-style:normal;font-weight:400;font-size:40px;line-height:1.25;font-family:sans-serif;letter-spacing:0;word-spacing:0;fill:#000;fill-opacity:1;stroke:none" xml:space="preserve"><tspan id="tspan3454" style="font-style:normal;font-variant:normal;font-weight:400;font-stretch:normal;font-size:20px;font-family:sans-serif;-inkscape-font-specification:'sans-serif, Normal';font-variant-ligatures:normal;font-variant-caps:normal;font-variant-numeric:normal;font-feature-settings:normal;text-align:start;writing-mode:lr-tb;text-anchor:start" x="514.294" y="349.985">January 1, 2020</tspan></text><text id="text3460" x="511.294" y="381.985" transform="rotate(-8.9737533)" style="font-style:normal;font-weight:400;font-size:40px;line-height:1.25;font-family:sans-serif;letter-spacing:0;word-spacing:0;fill:#000;fill-opacity:1;stroke:none" xml:space="preserve"><tspan style="font-style:normal;font-variant:normal;font-weight:400;font-stretch:normal;font-size:24px;font-family:sans-serif;-inkscape-font-specification:'sans-serif, Normal';font-variant-ligatures:normal;font-variant-caps:normal;font-variant-numeric:normal;font-feature-settings:normal;text-align:start;writing-mode:lr-tb;text-anchor:start" id="tspan3458" x="511.294" y="381.985">20:00</tspan></text></g></svg>