<svg xmlns="http://www.w3.org/2000/svg" xmlns:svg="http://www.w3.org/2000/svg" id="svg249" width="375" height="1026" version="1.1" viewBox="0 0 375 1026"><metadata id="metadata253"/><defs id="defs86"><linearGradient id="linear-gradient" x1="298.801" x2="7.07" y1="292.346" y2="0" gradientTransform="scale(1.2198751,0.81975606)" gradientUnits="userSpaceOnUse"><stop id="stop2" offset="0" stop-color="#81c7f5"/><stop id="stop4" offset="1" stop-color="#3867d5"/></linearGradient><clipPath id="clip-path"><path id="Shape" fill="none" d="M338.667-26.667h16.667A2.667,2.667,0,0,1,358-24v6h0a2.667,2.667,0,0,1-2.667,2.667H338.667A2.667,2.667,0,0,1,336-18v-6h0A2.667,2.667,0,0,1,338.667-26.667Z" clip-rule="evenodd" transform="translate(0 44)"/></clipPath><clipPath id="clip-path-2"><path id="Shape-2" fill="none" d="M359-23v4a2.17,2.17,0,0,0,1.328-2A2.17,2.17,0,0,0,359-23" data-name="Shape" transform="translate(0 44)"/></clipPath><clipPath id="clip-path-3"><path id="Shape-3" fill="none" d="M339.333-24.667h15.333A1.333,1.333,0,0,1,356-23.333v4.667h0a1.333,1.333,0,0,1-1.333,1.333H339.333A1.333,1.333,0,0,1,338-18.667v-4.667h0A1.333,1.333,0,0,1,339.333-24.667Z" data-name="Shape" transform="translate(0 44)"/></clipPath><clipPath id="clip-path-4"><path id="Shape-4" fill="none" d="M323.33-24.392a8.64,8.64,0,0,1,5.953,2.378.308.308,0,0,0,.433,0l1.156-1.167a.322.322,0,0,0,.093-.229.322.322,0,0,0-.1-.227,10.9,10.9,0,0,0-15.08,0,.322.322,0,0,0-.1.227.322.322,0,0,0,.093.229l1.156,1.167a.308.308,0,0,0,.433,0,8.641,8.641,0,0,1,5.954-2.378Zm0,3.8a4.907,4.907,0,0,1,3.294,1.27.31.31,0,0,0,.433-.006l1.155-1.167a.322.322,0,0,0,.094-.23.322.322,0,0,0-.1-.229,7.159,7.159,0,0,0-9.752,0,.322.322,0,0,0-.1.229.322.322,0,0,0,.094.23l1.154,1.167a.31.31,0,0,0,.433.006,4.907,4.907,0,0,1,3.292-1.27Zm2.219,2.784a.314.314,0,0,0,.094-.231.314.314,0,0,0-.1-.226,3.422,3.422,0,0,0-4.419,0,.314.314,0,0,0-.1.226.314.314,0,0,0,.094.231l2,2.016a.311.311,0,0,0,.222.093.312.312,0,0,0,.222-.093Z" data-name="Shape" transform="translate(0 44)"/></clipPath><clipPath id="clip-path-5"><path id="Shape-5" fill="none" d="M294.667-19.667h1a1,1,0,0,1,1,1v2a1,1,0,0,1-1,1h-1a1,1,0,0,1-1-1v-2a1,1,0,0,1,1-1Zm4.667-2h1a1,1,0,0,1,1,1v4a1,1,0,0,1-1,1h-1a1,1,0,0,1-1-1v-4A1,1,0,0,1,299.333-21.667ZM304-24h1a1,1,0,0,1,1,1v6.333a1,1,0,0,1-1,1h-1a1,1,0,0,1-1-1V-23A1,1,0,0,1,304-24Zm4.667-2.333h1a1,1,0,0,1,1,1v8.667a1,1,0,0,1-1,1h-1a1,1,0,0,1-1-1v-8.667a1,1,0,0,1,1-1Z" data-name="Shape" transform="translate(0 44)"/></clipPath><filter id="Rectangle_184" width="179.526" height="57.493" x="7" y="259" filterUnits="userSpaceOnUse"><feOffset id="feOffset17" dy="2" input="SourceAlpha"/><feGaussianBlur id="feGaussianBlur19" result="blur" stdDeviation="3"/><feFlood id="feFlood21" flood-color="#4f85df" flood-opacity=".29"/><feComposite id="feComposite23" in2="blur" operator="in" result="result1"/><feComposite id="feComposite25" in="SourceGraphic" in2="result1"/></filter><filter id="Rectangle_184-2" width="179.526" height="57.493" x="188.474" y="259" filterUnits="userSpaceOnUse"><feOffset id="feOffset28" dy="2" input="SourceAlpha"/><feGaussianBlur id="feGaussianBlur30" result="blur-2" stdDeviation="3"/><feFlood id="feFlood32" flood-color="#4f85df" flood-opacity=".29"/><feComposite id="feComposite34" in2="blur-2" operator="in" result="result1"/><feComposite id="feComposite36" in="SourceGraphic" in2="result1"/></filter><filter id="Rectangle_184-3" width="179.526" height="57.493" x="97.426" y="313.117" filterUnits="userSpaceOnUse"><feOffset id="feOffset39" dy="2" input="SourceAlpha"/><feGaussianBlur id="feGaussianBlur41" result="blur-3" stdDeviation="3"/><feFlood id="feFlood43" flood-color="#4f85df" flood-opacity=".29"/><feComposite id="feComposite45" in2="blur-3" operator="in" result="result1"/><feComposite id="feComposite47" in="SourceGraphic" in2="result1"/></filter><filter id="Rectangle_169" width="366" height="250.207" x="4.5" y="412.5" filterUnits="userSpaceOnUse"><feOffset id="feOffset50" dy="4" input="SourceAlpha"/><feGaussianBlur id="feGaussianBlur52" result="blur-4" stdDeviation="4.5"/><feFlood id="feFlood54" flood-opacity=".051"/><feComposite id="feComposite56" in2="blur-4" operator="in" result="result1"/><feComposite id="feComposite58" in="SourceGraphic" in2="result1"/></filter><filter id="Rectangle_169-2" width="366" height="169.207" x="4.5" y="687.5" filterUnits="userSpaceOnUse"><feOffset id="feOffset61" dy="4" input="SourceAlpha"/><feGaussianBlur id="feGaussianBlur63" result="blur-5" stdDeviation="4.5"/><feFlood id="feFlood65" flood-opacity=".051"/><feComposite id="feComposite67" in2="blur-5" operator="in" result="result1"/><feComposite id="feComposite69" in="SourceGraphic" in2="result1"/></filter><filter id="Rectangle_169-3" width="366" height="145.207" x="4.5" y="882.5" filterUnits="userSpaceOnUse"><feOffset id="feOffset72" dy="4" input="SourceAlpha"/><feGaussianBlur id="feGaussianBlur74" result="blur-6" stdDeviation="4.5"/><feFlood id="feFlood76" flood-opacity=".051"/><feComposite id="feComposite78" in2="blur-6" operator="in" result="result1"/><feComposite id="feComposite80" in="SourceGraphic" in2="result1"/></filter><clipPath id="clip-_3"><rect id="rect83" width="375" height="1026"/></clipPath></defs><rect style="fill:#fff" id="rect88" width="375" height="1026" x="0" y="0"/><rect id="Rectangle_3" width="375" height="252" x="0" y="0" style="fill:url(#linear-gradient)" data-name="Rectangle 3"/><g id="Status_bar_dark" data-name="Status bar/dark" transform="translate(0,-60)"><path style="fill:none" id="bg" d="M 0,-44 H 375 V 0 H 0 Z" transform="translate(0,104)"/><g id="status_bar_dark-2" data-name="status bar/dark" transform="translate(0,60)"><path style="fill:none" id="Background" d="M 0,-44 H 375 V 0 H 0 Z" transform="translate(0,44)"/><g id="Battery"><g id="Border" clip-path="url(#clip-path)"><path style="fill:none;stroke-width:2" id="Fill" stroke="rgba(255,255,255,0.35)" d="M 2.667,0 H 19.333 A 2.667,2.667 0 0 1 22,2.667 v 6 0 a 2.667,2.667 0 0 1 -2.667,2.667 H 2.667 A 2.667,2.667 0 0 1 0,8.667 v -6 0 A 2.667,2.667 0 0 1 2.667,0 Z" transform="translate(336,17.333)"/></g><g id="Cap" clip-path="url(#clip-path-2)"><path id="Fill-2" fill="rgba(255,255,255,0.4)" d="m 354,-28 h 11.328 v 14 H 354 Z" data-name="Fill" transform="translate(0,44)"/></g><g id="Capacity" clip-path="url(#clip-path-3)"><path style="fill:#fff" id="Fill-3" d="m 333,-29.667 h 28 v 17.333 h -28 z" data-name="Fill" transform="translate(0,44)"/></g></g><g id="Wifi"><g id="Wifi-2" clip-path="url(#clip-path-4)" data-name="Wifi"><path style="fill:#fff" id="Fill-4" d="m 310.694,-31.669 h 25.272 V -10.7 h -25.272 z" data-name="Fill" transform="translate(0,44)"/></g></g><g id="Cellular_Connection" data-name="Cellular Connection"><g id="Cellular_Connection-2" clip-path="url(#clip-path-5)" data-name="Cellular Connection"><path style="fill:#fff" id="Fill-5" d="m 288.667,-31.333 h 27 v 20.667 h -27 z" data-name="Fill" transform="translate(0,44)"/></g></g><g id="Bars___Time_Black" data-name="Bars/_/Time Black" transform="translate(-9)"><path style="fill:none" id="Background-2" d="M 21,-19 H 75 V -35 H 21 Z" data-name="Background" transform="translate(8,50)"/><path style="fill:#fff" id="_Time" d="m 16.433,13.239 c 2.509,0 4,-1.962 4,-5.284 A 6.336,6.336 0 0 0 19.733,4.838 3.5,3.5 0 0 0 16.487,2.89 3.43,3.43 0 0 0 12.823,6.356 3.159,3.159 0 0 0 16.07,9.637 2.727,2.727 0 0 0 18.627,8.16 h 0.116 c 0,2.256 -0.854,3.6 -2.3,3.6 A 1.716,1.716 0 0 1 14.714,10.55 H 12.96 a 3.324,3.324 0 0 0 3.473,2.689 z m 0.062,-5 A 1.865,1.865 0 0 1 14.553,6.3 a 1.9500467,1.9500467 0 1 1 3.9,0.027 1.874,1.874 0 0 1 -1.959,1.908 z m 7.038,3.719 a 1.08,1.08 0 1 0 -1.094,-1.08 1.048,1.048 0 0 0 1.093,1.076 z m 0,-5.127 a 1.043,1.043 0 0 0 1.094,-1.073 1.094,1.094 0 0 0 -2.187,0 1.047,1.047 0 0 0 1.092,1.069 z M 31.445,13 h 1.688 v -1.839 h 1.333 V 9.671 H 33.134 V 3.136 h -2.488 c -1.743,2.625 -3.131,4.819 -4.02,6.453 v 1.572 h 4.819 z M 28.26,9.609 c 1.148,-2.023 2.174,-3.644 3.117,-5.038 h 0.1 V 9.712 H 28.26 Z M 38.511,13 h 1.764 V 3.136 H 38.518 L 35.94,4.94 v 1.7 l 2.454,-1.723 h 0.116 z" data-name="↳ Time" transform="translate(29,17)"/></g></g></g><text style="font-weight:300;font-size:16px;font-family:Montserrat-Light,Montserrat;fill:#fff" id="SOVEREIGN" x="18" y="67" font-size="16" font-weight="300"><tspan id="tspan111" x="18" y="67">SOVEREIGN</tspan></text><text style="font-weight:500;font-size:21px;font-family:Montserrat-Medium,Montserrat;fill:#fff" id="Cryptocurrency_of_Marshall_Island" x="18" y="94" data-name="Cryptocurrency of Marshall Island" font-size="21" font-weight="500"><tspan id="tspan114" x="18" y="94">Cryptocurrency of Marshall</tspan> <tspan id="tspan116" x="18" y="119">Island</tspan></text><g style="filter:url(#Rectangle_184)" id="g120"><rect style="fill:#fff" id="Rectangle_184-4" width="161.526" height="39.493" x="0" y="0" data-name="Rectangle 184" rx="7" transform="translate(16,266)"/></g><text style="font-weight:500;font-size:12px;font-family:Montserrat-Medium,Montserrat;opacity:.57599996" id="Pay_Anyone" x="96.564" y="289.56" data-name="Pay Anyone" font-size="12" font-weight="500"><tspan id="tspan122" x="61.134" y="289.56">Pay Anyone</tspan></text><g style="filter:url(#Rectangle_184-2)" id="g126"><rect style="fill:#fff" id="Rectangle_184-5" width="161.526" height="39.493" x="0" y="0" data-name="Rectangle 184" rx="7" transform="translate(197.47,266)"/></g><text style="font-weight:500;font-size:12px;font-family:Montserrat-Medium,Montserrat;opacity:.57599996" id="Request_Payment" x="278.044" y="290.56" data-name="Request Payment" font-size="12" font-weight="500"><tspan id="tspan128" x="224.302" y="290.56">Request Payment</tspan></text><g style="filter:url(#Rectangle_184-3)" id="g132"><rect style="fill:#fff" id="Rectangle_184-6" width="161.526" height="39.493" x="0" y="0" data-name="Rectangle 184" rx="7" transform="translate(106.43,320.12)"/></g><text style="font-weight:500;font-size:12px;font-family:Montserrat-Medium,Montserrat;opacity:.57599996" id="Convert_to_USD" x="187.99" y="343.677" data-name="Convert to USD" font-size="12" font-weight="500"><tspan id="tspan134" x="141.844" y="343.677">Convert to USD</tspan></text><text style="font-size:38px;font-family:Montserrat-Regular,Montserrat;fill:#fff" id="_314.15" x="113" y="173" data-name="$314.15" font-size="38"><tspan id="tspan137" x="113" y="173">$314.15</tspan></text><text style="font-weight:300;font-size:14px;font-family:Montserrat-Light,Montserrat;fill:#fff" id="CURRENT_BALANCE_276.15_available_" x="187" y="201" data-name="CURRENT BALANCE ($276.15 available)" font-size="14" font-weight="300"><tspan id="tspan140" x="116.713" y="201">CURRENT BALANCE</tspan> <tspan id="tspan142" x="123.321" y="229">($276.15 available)</tspan></text><g id="Group_86" data-name="Group 86"><text style="font-weight:500;font-size:15px;font-family:Montserrat-Medium,Montserrat;opacity:.33600003" id="Recent_Transactions" data-name="Recent Transactions" font-size="15" font-weight="500" transform="translate(16,402)"><tspan id="tspan145" x="0" y="0">Recent Transactions</tspan></text><text style="font-size:15px;font-family:Montserrat-Regular,Montserrat;opacity:.33600003" id="_3_49" data-name="3/49" font-size="15" transform="translate(357,402)"><tspan id="tspan148" x="-32.73" y="0">3/49</tspan></text><g style="filter:url(#Rectangle_169)" id="g152"><rect style="fill:#fff" id="Rectangle_169-4" width="339" height="223.207" x="0" y="0" data-name="Rectangle 169" rx="5" transform="translate(18,422)"/></g><g id="Group_83" data-name="Group 83"><text style="font-weight:500;font-size:14px;font-family:Montserrat-Medium,Montserrat" id="_29_Jan_BEKANT_Desk_-_IKEA" data-name="29 Jan BEKANT Desk - IKEA" font-size="14" font-weight="500" transform="translate(30,445)"><tspan id="tspan154" x="0" y="0">29 Jan BEKANT Desk - IKEA</tspan></text><text style="font-weight:500;font-size:14px;font-family:Montserrat-Medium,Montserrat;fill:#e65454" id="_-499.99" data-name="-499.99" font-size="14" font-weight="500" transform="translate(346,445)"><tspan id="tspan157" x="-51.52" y="0">-499.99</tspan></text><g id="Group_81" data-name="Group 81" transform="translate(-3,-7)"><text style="font-size:12px;font-family:Montserrat-Regular,Montserrat" id="Delivery_token_-_FedEx" data-name="Delivery token - FedEx" font-size="12" transform="translate(45,474)"><tspan id="tspan160" x="0" y="0">Delivery token - FedEx</tspan></text><circle style="fill:#4a7fdd" id="Ellipse_14" cx="2.5" cy="2.5" r="2.5" data-name="Ellipse 14" transform="translate(33,467)"/></g><g id="Group_82" data-name="Group 82" transform="translate(-3,14)"><text style="font-size:12px;font-family:Montserrat-Regular,Montserrat" id="Warranty_1_year_-_IKEA" data-name="Warranty 1 year - IKEA" font-size="12" transform="translate(45,474)"><tspan id="tspan165" x="0" y="0">Warranty 1 year - IKEA</tspan></text><circle style="fill:#4a7fdd" id="Ellipse_14-2" cx="2.5" cy="2.5" r="2.5" data-name="Ellipse 14" transform="translate(33,467)"/></g><g id="Group_94" data-name="Group 94" transform="translate(-3,35)"><text style="font-size:12px;font-family:Montserrat-Regular,Montserrat" id="Receipt_Token" data-name="Receipt Token" font-size="12" transform="translate(45,474)"><tspan id="tspan170" x="0" y="0">Receipt Token</tspan></text><circle style="fill:#4a7fdd" id="Ellipse_14-3" cx="2.5" cy="2.5" r="2.5" data-name="Ellipse 14" transform="translate(33,467)"/></g></g><g id="Group_84" data-name="Group 84" transform="translate(0,109)"><text style="font-weight:500;font-size:14px;font-family:Montserrat-Medium,Montserrat" id="_28_Jan_VISA_Application" data-name="28 Jan VISA Application" font-size="14" font-weight="500" transform="translate(30,445)"><tspan id="tspan176" x="0" y="0">28 Jan VISA Application</tspan></text><text style="font-weight:500;font-size:14px;font-family:Montserrat-Medium,Montserrat;fill:#e65454" id="_-80.00" data-name="-80" font-size="14" font-weight="500" transform="translate(346,445)"><tspan id="tspan179" x="-42.882" y="0">-80.00</tspan></text><g id="Group_81-2" data-name="Group 81" transform="translate(-3,-7)"><text style="font-size:12px;font-family:Montserrat-Regular,Montserrat" id="Receipt_Token-2" data-name="Receipt Token" font-size="12" transform="translate(45,474)"><tspan id="tspan182" x="0" y="0">Receipt Token</tspan></text><circle style="fill:#4a7fdd" id="Ellipse_14-4" cx="2.5" cy="2.5" r="2.5" data-name="Ellipse 14" transform="translate(33,467)"/></g></g><g id="Group_85" data-name="Group 85" transform="translate(0,179)"><text style="font-weight:500;font-size:14px;font-family:Montserrat-Medium,Montserrat" id="_26_Purchase_SOVEREIGN_from_Ether" data-name="26 Purchase SOVEREIGN from Ether" font-size="14" font-weight="500" transform="translate(30,445)"><tspan id="tspan188" x="0" y="0">26 Purchase SOVEREIGN from Ether</tspan></text><text style="font-weight:500;font-size:14px;font-family:Montserrat-Medium,Montserrat;fill:#e65454" id="_-80.00-2" data-name="-80" font-size="14" font-weight="500" transform="translate(346,445)"><tspan id="tspan191" x="-42.882" y="0">-80.00</tspan></text></g><line style="opacity:.10700001;fill:none;stroke:#707070;stroke-width:1" id="Line_1" x1="0" x2="325" y1="0" y2="0" data-name="Line 1" transform="translate(25.5,524.5)"/><line style="opacity:.10700001;fill:none;stroke:#707070;stroke-width:1" id="Line_2" x1="0" x2="325" y1="0" y2="0" data-name="Line 2" transform="translate(25.5,594.5)"/></g><g id="Group_87" data-name="Group 87" transform="translate(0,275)"><text style="font-weight:500;font-size:15px;font-family:Montserrat-Medium,Montserrat;opacity:.33600003" id="Open_Payment_Channels" data-name="Open Payment Channels" font-size="15" font-weight="500" transform="translate(16,402)"><tspan id="tspan198" x="0" y="0">Open Payment Channels</tspan></text><g style="filter:url(#Rectangle_169-2)" id="g202" transform="translate(0,-275)"><rect style="fill:#fff" id="Rectangle_169-5" width="339" height="142.207" x="0" y="0" data-name="Rectangle 169" rx="5" transform="translate(18,697)"/></g><g id="Group_83-2" data-name="Group 83"><text style="font-weight:500;font-size:14px;font-family:Montserrat-Medium,Montserrat" id="Payment_Channel" data-name="Payment Channel" font-size="14" font-weight="500" transform="translate(30,445)"><tspan id="tspan204" x="0" y="0">Payment Channel</tspan></text><text style="font-size:13px;font-family:Montserrat-Regular,Montserrat" id="Opened:_2019-04-05" data-name="Opened: 2019-04-05" font-size="13" transform="translate(30,475)"><tspan id="tspan207" x="0" y="0">Opened: 2019-04-05</tspan></text><text style="font-size:13px;font-family:Montserrat-Regular,Montserrat" id="Expiry:_2019-05-05" data-name="Expiry: 2019-05-05" font-size="13" transform="translate(30,498)"><tspan id="tspan210" x="0" y="0">Expiry: 2019-05-05</tspan></text><text style="font-size:13px;font-family:Montserrat-Regular,Montserrat;fill:#0bb218" id="Balance_held:_50" data-name="Balance held: $50" font-size="13" transform="translate(30,527)"><tspan style="fill:#000" id="tspan213" x="0" y="0">Balance held:</tspan> <tspan style="font-weight:500;font-family:Montserrat-Medium,Montserrat;fill:#0bb218" id="tspan215" y="0" font-weight="500">$50</tspan></text><text style="font-size:13px;font-family:Montserrat-Regular,Montserrat;fill:#0bb218" id="Current_Balance:_38" data-name="Current Balance: $38" font-size="13" transform="translate(30,550)"><tspan style="fill:#000" id="tspan218" x="0" y="0">Current Balance:</tspan> <tspan style="font-weight:500;font-family:Montserrat-Medium,Montserrat;fill:#0bb218" id="tspan220" y="0" font-weight="500">$38</tspan></text></g></g><g id="Group_88" data-name="Group 88" transform="translate(0,470)"><text style="font-weight:500;font-size:15px;font-family:Montserrat-Medium,Montserrat;opacity:.33600003" id="Open_Payment_Channels-2" data-name="Authorisations" font-size="15" font-weight="500" transform="translate(16,402)"><tspan id="tspan225" x="0" y="0">Authorisations</tspan></text><text style="font-size:15px;font-family:Montserrat-Regular,Montserrat;opacity:.33600003" id="_2_5" data-name="2/5" font-size="15" transform="translate(357,402)"><tspan id="tspan228" x="-23.475" y="0">2/5</tspan></text><g style="filter:url(#Rectangle_169-3)" id="g232" transform="translate(0,-470)"><rect style="fill:#fff" id="Rectangle_169-6" width="339" height="118.207" x="0" y="0" data-name="Rectangle 169" rx="5" transform="translate(18,892)"/></g><g id="Group_83-3" data-name="Group 83"><text style="font-weight:500;font-size:14px;font-family:Montserrat-Medium,Montserrat" id="The_Guardian:_biweekly" data-name="The Guardian: biweekly" font-size="14" font-weight="500" transform="translate(30,448)"><tspan id="tspan234" x="0" y="0">The Guardian: biweekly</tspan></text><text style="font-weight:500;font-size:14px;font-family:Montserrat-Medium,Montserrat" id="Pablo_Rusty:_monthly" data-name="Pablo &amp; Rusty: monthly" font-size="14" font-weight="500" transform="translate(30,501)"><tspan id="tspan237" x="0" y="0">Pablo &amp; Rusty: monthly</tspan></text><text style="font-size:13px;font-family:Montserrat-Regular,Montserrat" id="_10_-_No_expiry" data-name="$10 - No expiry" font-size="13" transform="translate(30,471)"><tspan id="tspan240" x="0" y="0">$10 - No expiry</tspan></text><text style="font-size:13px;font-family:Montserrat-Regular,Montserrat" id="_28_-_till_2019" data-name="$28 - till 2019" font-size="13" transform="translate(30,524)"><tspan id="tspan243" x="0" y="0">$28 - till 2019</tspan></text></g></g></svg>